<svg xmlns="http://www.w3.org/2000/svg" viewBox="0 0 800 550">
<defs>
  <linearGradient id="bg" x1="0" y1="0" x2="1" y2="1"><stop offset="0" stop-color="#0f172a"/><stop offset="1" stop-color="#1e1b4b"/></linearGradient>
  <marker id="arr" viewBox="0 0 10 10" refX="8" refY="5" markerWidth="7" markerHeight="7" orient="auto-start-reverse"><path d="M0 0L10 5L0 10z" fill="#22d3ee"/></marker>
</defs>
<rect width="800" height="550" fill="url(#bg)"/>
<circle cx="700" cy="80" r="150" fill="#22d3ee" opacity="0.07"/>
<circle cx="90" cy="480" r="120" fill="#22d3ee" opacity="0.07"/>
<text x="48" y="62" font-family="'Space Grotesk',Inter,Arial" font-size="30" font-weight="700" fill="#f1f5f9">Sluice</text>
<text x="48" y="92" font-family="Inter,Arial" font-size="17" fill="#94a3b8">High-throughput telemetry ingestion · Go</text>
<rect x="48" y="160" width="218.66666666666666" height="56" rx="14" fill="#1e293b" stroke="#22d3ee" stroke-width="1.5" opacity="0.95"/><text x="157.33333333333331" y="194" text-anchor="middle" font-family="Inter,Arial" font-size="17" font-weight="600" fill="#e2e8f0">Load Gen</text><path d="M270.66666666666663 188 L284.66666666666663 188" stroke="#22d3ee" stroke-width="2.5" marker-end="url(#arr)"/><rect x="290.66666666666663" y="160" width="218.66666666666666" height="56" rx="14" fill="#1e293b" stroke="#22d3ee" stroke-width="1.5" opacity="0.95"/><text x="399.99999999999994" y="194" text-anchor="middle" font-family="Inter,Arial" font-size="17" font-weight="600" fill="#e2e8f0">gRPC Gateway</text><path d="M513.3333333333333 188 L527.3333333333333 188" stroke="#22d3ee" stroke-width="2.5" marker-end="url(#arr)"/><rect x="533.3333333333333" y="160" width="218.66666666666666" height="56" rx="14" fill="#1e293b" stroke="#22d3ee" stroke-width="1.5" opacity="0.95"/><text x="642.6666666666666" y="194" text-anchor="middle" font-family="Inter,Arial" font-size="17" font-weight="600" fill="#e2e8f0">Worker Pool</text><path d="M400 218 L400 224" stroke="#22d3ee" stroke-width="2.5" marker-end="url(#arr)" opacity="0.8"/><rect x="48" y="228" width="704" height="56" rx="28" fill="#1e293b" stroke="#22d3ee" stroke-width="1.5" opacity="0.95"/><text x="400" y="262" text-anchor="middle" font-family="Inter,Arial" font-size="17" font-weight="600" fill="#e2e8f0">Kafka · idempotent</text><path d="M400 286 L400 292" stroke="#22d3ee" stroke-width="2.5" marker-end="url(#arr)" opacity="0.8"/><rect x="48" y="296" width="218.66666666666666" height="56" rx="14" fill="#1e293b" stroke="#22d3ee" stroke-width="1.5" opacity="0.95"/><text x="157.33333333333331" y="330" text-anchor="middle" font-family="Inter,Arial" font-size="17" font-weight="600" fill="#e2e8f0">Consumer Group</text><path d="M270.66666666666663 324 L284.66666666666663 324" stroke="#22d3ee" stroke-width="2.5" marker-end="url(#arr)"/><rect x="290.66666666666663" y="296" width="218.66666666666666" height="56" rx="28" fill="#1e293b" stroke="#22d3ee" stroke-width="1.5" opacity="0.95"/><text x="399.99999999999994" y="330" text-anchor="middle" font-family="Inter,Arial" font-size="17" font-weight="600" fill="#e2e8f0">Redis dedup</text><path d="M513.3333333333333 324 L527.3333333333333 324" stroke="#22d3ee" stroke-width="2.5" marker-end="url(#arr)"/><rect x="533.3333333333333" y="296" width="218.66666666666666" height="56" rx="28" fill="#1e293b" stroke="#22d3ee" stroke-width="1.5" opacity="0.95"/><text x="642.6666666666666" y="330" text-anchor="middle" font-family="Inter,Arial" font-size="17" font-weight="600" fill="#e2e8f0">TimescaleDB</text><path d="M400 354 L400 360" stroke="#22d3ee" stroke-width="2.5" marker-end="url(#arr)" opacity="0.8"/><rect x="48" y="364" width="340" height="56" rx="14" fill="#1e293b" stroke="#22d3ee" stroke-width="1.5" opacity="0.95"/><text x="218" y="398" text-anchor="middle" font-family="Inter,Arial" font-size="17" font-weight="600" fill="#e2e8f0">Prometheus / Grafana</text><path d="M392 392 L406 392" stroke="#22d3ee" stroke-width="2.5" marker-end="url(#arr)"/><rect x="412" y="364" width="340" height="56" rx="14" fill="#1e293b" stroke="#22d3ee" stroke-width="1.5" opacity="0.95"/><text x="582" y="398" text-anchor="middle" font-family="Inter,Arial" font-size="17" font-weight="600" fill="#e2e8f0">Helm · Terraform · Ansible</text>
</svg>